HIERARCHY
ROOT Hips
{
	OFFSET 0.000000 0.000000 0.000000
	CHANNELS 6 Xposition Yposition Zposition Zrotation Yrotation Xrotation 
	JOINT LHipJoint
	{
		OFFSET 0.000000 0.000000 0.000000
		CHANNELS 3 Zrotation Yrotation Xrotation
		JOINT LeftUpLeg
		{
			OFFSET 1.363060 -1.794630 0.839290
			CHANNELS 3 Zrotation Yrotation Xrotation
			JOINT LeftLeg
			{
				OFFSET 2.448110 -6.726130 0.000000
				CHANNELS 3 Zrotation Yrotation Xrotation
				JOINT LeftFoot
				{
					OFFSET 2.562200 -7.039590 0.000000
					CHANNELS 3 Zrotation Yrotation Xrotation
					JOINT LeftToeBase
					{
						OFFSET 0.157640 -0.433110 2.322550
						CHANNELS 3 Zrotation Yrotation Xrotation
						End Site
						{
							OFFSET 0.000000 0.000000 0.000000
						}
					}
				}
			}
		}
	}
	JOINT RHipJoint
	{
		OFFSET 0.000000 0.000000 0.000000
		CHANNELS 3 Zrotation Yrotation Xrotation
		JOINT RightUpLeg
		{
			OFFSET -1.305520 -1.794630 0.839290
			CHANNELS 3 Zrotation Yrotation Xrotation
			JOINT RightLeg
			{
				OFFSET -2.542530 -6.985550 0.000000
				CHANNELS 3 Zrotation Yrotation Xrotation
				JOINT RightFoot
				{
					OFFSET -2.568260 -7.056230 0.000000
					CHANNELS 3 Zrotation Yrotation Xrotation
					JOINT RightToeBase
					{
						OFFSET -0.164730 -0.452590 2.363150
						CHANNELS 3 Zrotation Yrotation Xrotation
						End Site
						{
							OFFSET 0.000000 0.000000 0.000000
						}
					}
				}
			}
		}
	}
	JOINT LowerBack
	{
		OFFSET 0.000000 0.000000 0.000000
		CHANNELS 3 Zrotation Yrotation Xrotation
		JOINT Spine
		{
			OFFSET 0.028270 2.035590 -0.193380
			CHANNELS 3 Zrotation Yrotation Xrotation
			JOINT Spine1
			{
				OFFSET 0.056720 2.048850 -0.042750
				CHANNELS 3 Zrotation Yrotation Xrotation
				JOINT Neck
				{
					OFFSET 0.000000 0.000000 0.000000
					CHANNELS 3 Zrotation Yrotation Xrotation
					JOINT Neck1
					{
						OFFSET -0.054170 1.746240 0.172020
						CHANNELS 3 Zrotation Yrotation Xrotation
						JOINT Head
						{
							OFFSET 0.104070 1.761360 -0.123970
							CHANNELS 3 Zrotation Yrotation Xrotation
							End Site
							{
								OFFSET 0.000000 0.000000 0.000000
							}
						}
					}
				}
				JOINT LeftShoulder
				{
					OFFSET 0.000000 0.000000 0.000000
					CHANNELS 3 Zrotation Yrotation Xrotation
					JOINT LeftArm
					{
						OFFSET 3.362410 1.200890 -0.311210
						CHANNELS 3 Zrotation Yrotation Xrotation
						JOINT LeftForeArm
						{
							OFFSET 4.983000 -0.000000 -0.000000
							CHANNELS 3 Zrotation Yrotation Xrotation
							JOINT LeftHand
							{
								OFFSET 3.483560 -0.000000 -0.000000
								CHANNELS 3 Zrotation Yrotation Xrotation
								JOINT LeftFingerBase
								{
									OFFSET 0.000000 0.000000 0.000000
									CHANNELS 3 Zrotation Yrotation Xrotation
									JOINT LeftHandIndex1
									{
										OFFSET 0.715260 -0.000000 -0.000000
										CHANNELS 3 Zrotation Yrotation Xrotation
										End Site
										{
											OFFSET 0.000000 0.000000 0.000000
										}
									}
								}
								JOINT LThumb
								{
									OFFSET 0.000000 0.000000 0.000000
									CHANNELS 3 Zrotation Yrotation Xrotation
									End Site
									{
										OFFSET 0.000000 0.000000 0.000000
									}
								}
							}
						}
					}
				}
				JOINT RightShoulder
				{
					OFFSET 0.000000 0.000000 0.000000
					CHANNELS 3 Zrotation Yrotation Xrotation
					JOINT RightArm
					{
						OFFSET -3.136600 1.374050 -0.404650
						CHANNELS 3 Zrotation Yrotation Xrotation
						JOINT RightForeArm
						{
							OFFSET -5.241900 -0.000000 -0.000000
							CHANNELS 3 Zrotation Yrotation Xrotation
							JOINT RightHand
							{
								OFFSET -3.444170 -0.000000 -0.000000
								CHANNELS 3 Zrotation Yrotation Xrotation
								JOINT RightFingerBase
								{
									OFFSET 0.000000 0.000000 0.000000
									CHANNELS 3 Zrotation Yrotation Xrotation
									JOINT RightHandIndex1
									{
										OFFSET -0.622530 -0.000000 -0.000000
										CHANNELS 3 Zrotation Yrotation Xrotation
										End Site
										{
											OFFSET 0.000000 0.000000 0.000000
										}
									}
								}
								JOINT RThumb
								{
									OFFSET 0.000000 0.000000 0.000000
									CHANNELS 3 Zrotation Yrotation Xrotation
									End Site
									{
										OFFSET 0.000000 0.000000 0.000000
									}
								}
							}
						}
					}
				}
			}
		}
	}
}
MOTION
Frames: 10
Frame Time: 0.008333
-1.092267 16.379705 1.723295 -155.393838 79.357433 -128.131354 -13.112639 0.113545 -0.575733 1.874525 -11.074532 -18.676204 0.002513 2.535015 46.876711 1.926581 11.263741 -12.230169 -0.921900 -0.000000 -45.346500 6.257787 0.783106 1.622241 -1.264635 10.262643 -48.303608 2.679586 -1.069821 20.708353 1.479458 9.598971 4.904802 1.788000 -0.000000 -64.865299 8.982571 -2.192770 2.688610 1.086478 -2.596199 -2.350629 -6.458200 -2.654233 0.353328 9.985312 -0.488807 1.965072 -3.811057 -0.347991 2.330227 0.000000 0.000000 0.000000 -4.924670 -3.838558 -0.460837 -71.136346 -20.157679 22.970755 -1.064287 -72.448667 -0.035553 7.040590 -2.783788 -0.198907 -0.185841 0.398170 -0.000000 0.000000 0.000000 0.000000 0.000000 0.000000 0.000000 15.053727 -3.387626 1.634030 53.934322 -5.843006 -19.801667 3.801815 5.189695 0.009921 -4.532213 5.477761 -0.225828 0.144364 -0.050909 -0.000000 0.000000 0.000000 0.000000 0.000000 0.000000 0.000000 
-0.958870 16.345983 1.735216 -154.120208 78.841439 -126.880801 -13.370222 0.015293 -0.669722 2.234531 -10.387207 -19.576917 0.125142 2.695529 49.129661 2.171637 12.826701 -12.972835 -1.177900 0.000000 -36.508000 6.101694 0.645136 1.485066 -0.104145 10.291819 -48.933062 2.669809 -1.289954 23.066320 1.424626 9.267232 4.133487 1.609900 0.000001 -63.891900 9.391293 -2.189430 2.914074 1.146689 -2.595504 -2.325991 -6.513580 -2.658937 0.303926 10.480653 -0.116673 2.119328 -3.829980 -0.348926 2.365476 0.000000 0.000000 0.000000 -5.207659 -3.971442 -0.450543 -71.511842 -19.633601 21.491974 -1.140135 -70.740514 -0.038653 7.745471 -2.912089 -0.226885 -0.187932 0.387869 0.000000 0.000000 0.000000 0.000000 0.000000 0.000000 0.000000 15.598218 -3.202788 1.578128 53.574179 -5.238992 -19.949667 3.795715 4.761004 0.009432 -4.724396 5.349303 -0.229538 0.142947 -0.048970 -0.000000 0.000000 0.000000 0.000000 0.000000 0.000000 0.000000 
-0.830255 16.321397 1.747774 -153.191356 78.352649 -126.002852 -13.584283 -0.095058 -0.804862 2.449725 -9.665259 -20.451079 0.233350 2.850635 51.279366 2.436043 14.459557 -13.846301 -1.507200 -0.000000 -26.559300 5.960549 0.527425 1.370073 0.855705 10.472492 -49.327030 2.638333 -1.463900 25.141314 1.332483 8.743016 3.071182 1.365900 0.000000 -62.952800 9.700090 -2.197453 3.177357 1.185752 -2.597673 -2.287927 -6.577763 -2.666057 0.271910 11.026723 0.270180 2.286907 -3.850952 -0.349949 2.402271 0.000000 0.000000 0.000000 -5.445377 -4.096043 -0.439002 -71.894466 -19.130780 19.936830 -1.211455 -68.867045 -0.042307 8.622250 -3.019472 -0.259770 -0.191310 0.375509 0.000000 0.000000 0.000000 0.000000 0.000000 0.000000 0.000000 16.203175 -3.023347 1.512277 53.267916 -4.462818 -20.241100 3.771634 4.301827 0.008826 -5.017445 5.223657 -0.237552 0.141160 -0.047329 -0.000000 0.000000 0.000000 0.000000 0.000000 0.000000 0.000000 
-0.706139 16.306487 1.761324 -152.636656 77.893359 -125.525055 -13.750966 -0.210940 -0.973267 2.516988 -8.943250 -21.286960 0.334082 2.996760 53.265081 2.711734 16.130744 -14.668613 -1.871300 0.000000 -17.484500 5.840081 0.435043 1.274338 1.599025 10.783031 -49.471274 2.589343 -1.590259 26.897924 1.205037 8.056099 1.811553 1.090300 -0.000000 -62.095400 9.904266 -2.217207 3.471250 1.203265 -2.603644 -2.236875 -6.648840 -2.676434 0.260951 11.609403 0.657777 2.461215 -3.873279 -0.350997 2.438963 0.000000 0.000000 0.000000 -5.642373 -4.207723 -0.422803 -72.261563 -18.662650 18.339123 -1.275902 -66.837716 -0.046361 9.673150 -3.093934 -0.296464 -0.195761 0.360992 0.000000 0.000000 0.000000 0.000000 0.000000 0.000000 0.000000 16.851755 -2.858507 1.437211 53.036110 -3.519021 -20.677085 3.727804 3.834567 0.008125 -5.426868 5.116114 -0.251063 0.138997 -0.046096 -0.000000 0.000000 0.000000 0.000000 0.000000 0.000000 0.000000 
-0.586000 16.301430 1.775913 -152.492003 77.464897 -125.478637 -13.868597 -0.324094 -1.163748 2.430190 -8.260936 -22.078344 0.433877 3.130564 55.055131 2.987651 17.799505 -15.268410 -2.211600 -0.000000 -10.834500 5.746484 0.371790 1.192952 2.121458 11.183411 -49.368995 2.526434 -1.671421 28.318947 1.047251 7.246009 0.458363 0.816800 0.000000 -61.340900 10.002462 -2.248341 3.785376 1.199681 -2.614195 -2.174229 -6.723509 -2.690765 0.273524 12.209408 1.031642 2.636332 -3.896176 -0.352016 2.474189 0.000000 0.000000 0.000000 -5.804969 -4.304570 -0.399052 -72.593897 -18.236938 16.737270 -1.331756 -64.663445 -0.050560 10.887120 -3.122790 -0.334867 -0.200853 0.344298 0.000000 0.000000 0.000000 0.000000 0.000000 0.000000 0.000000 17.521637 -2.717361 1.353581 52.898500 -2.420620 -21.243862 3.663670 3.387783 0.007365 -5.959269 5.046097 -0.271174 0.136457 -0.045350 -0.000000 0.000000 0.000000 0.000000 0.000000 0.000000 0.000000 
-0.469214 16.305987 1.791188 -152.781052 77.066478 -125.881587 -13.938361 -0.427140 -1.366260 2.182895 -7.640628 -22.833030 0.527058 3.251065 56.660049 3.252244 19.396936 -15.696987 -2.520000 0.000000 -6.252600 5.684567 0.338275 1.121470 2.433322 11.623553 -49.037885 2.452738 -1.712462 29.402899 0.866950 6.355325 -0.883410 0.571200 0.000000 -60.693200 9.999711 -2.289395 4.107773 1.176742 -2.629568 -2.102206 -6.797507 -2.709216 0.310760 12.803709 1.384375 2.807823 -3.918496 -0.352943 2.507106 0.000000 0.000000 0.000000 -5.942781 -4.378426 -0.364665 -72.878704 -17.865216 15.181709 -1.378939 -62.349565 -0.054581 12.238716 -3.093830 -0.371178 -0.206053 0.325520 0.000000 0.000000 0.000000 0.000000 0.000000 0.000000 0.000000 18.185488 -2.599731 1.261457 52.875164 -1.200439 -21.903338 3.580621 3.009590 0.006574 -6.607931 5.027928 -0.298883 0.133558 -0.045069 -0.000000 0.000000 0.000000 0.000000 0.000000 0.000000 0.000000 
-0.355149 16.319595 1.806413 -153.504729 76.690783 -126.726668 -13.964769 -0.514544 -1.570225 1.776471 -7.091833 -23.567994 0.608354 3.357503 58.091917 3.496088 20.863035 -16.020510 -2.798900 -0.000000 -3.243000 5.656980 0.331839 1.056230 2.556857 12.050241 -48.506983 2.371185 -1.720119 30.159936 0.673987 5.424763 -2.116641 0.368000 -0.000000 -60.153300 9.907155 -2.337776 4.424814 1.137465 -2.649285 -2.024000 -6.866203 -2.731297 0.371562 13.367062 1.705948 2.972910 -3.939297 -0.353750 2.537431 0.000000 0.000000 0.000000 -6.063867 -4.431997 -0.318505 -73.109662 -17.543220 13.713947 -1.417455 -59.908792 -0.058071 13.684846 -2.994523 -0.400498 -0.210572 0.304862 0.000000 0.000000 0.000000 0.000000 0.000000 0.000000 0.000000 18.814101 -2.509458 1.161121 52.981706 0.113425 -22.615433 3.481692 2.734536 0.005806 -7.350216 5.082617 -0.335388 0.130343 -0.045247 -0.000000 0.000000 0.000000 0.000000 0.000000 0.000000 0.000000 
-0.243169 16.341449 1.820773 -154.634897 76.325569 -127.975859 -13.955560 -0.583031 -1.765463 1.224158 -6.610765 -24.306899 0.673500 3.449953 59.363797 3.711986 22.147785 -16.306841 -3.059000 0.000000 -1.236700 5.663121 0.346713 0.994877 2.527701 12.414543 -47.812328 2.285209 -1.701426 30.607750 0.479279 4.491886 -3.160444 0.210400 0.000000 -59.720501 9.744678 -2.389759 4.722113 1.086628 -2.672074 -1.943374 -6.925048 -2.755766 0.453653 13.874570 1.990724 3.130176 -3.957585 -0.354413 2.565313 0.000000 0.000000 0.000000 -6.177334 -4.465825 -0.260118 -73.286106 -17.267433 12.377649 -1.448548 -57.351583 -0.060685 15.167623 -2.815186 -0.416925 -0.213619 0.282682 0.000000 0.000000 0.000000 0.000000 0.000000 0.000000 0.000000 19.378513 -2.445544 1.052478 53.228683 1.487269 -23.332004 3.371726 2.595442 0.005114 -8.148626 5.227412 -0.381690 0.126907 -0.045834 -0.000000 0.000000 0.000000 0.000000 0.000000 0.000000 0.000000 
-0.132723 16.370584 1.833272 -156.110644 75.954928 -129.557729 -13.920087 -0.631669 -1.942646 0.549611 -6.185281 -25.074651 0.720986 3.528786 60.485478 3.894887 23.216172 -16.588279 176.696500 0.000000 -0.078600 5.699846 0.375340 0.936076 2.390014 12.673804 -46.994076 2.199111 -1.663017 30.770165 0.293545 3.591519 -3.958745 0.093301 -0.000000 -59.394300 9.537574 -2.440494 4.985811 1.029950 -2.695526 -1.864394 -6.970301 -2.780318 0.553469 14.304185 2.235672 3.279657 -3.972626 -0.354931 2.591313 0.000000 0.000000 0.000000 -6.291665 -4.481976 -0.190156 -73.412180 -17.030871 11.211307 -1.474157 -54.689665 -0.062161 16.615894 -2.549984 -0.414259 -0.214460 0.259480 0.000000 0.000000 0.000000 0.000000 0.000000 0.000000 0.000000 19.853892 -2.404802 0.935356 53.620446 2.888040 -24.002032 3.256986 2.615941 0.004555 -8.952623 5.475872 -0.438587 0.123394 -0.046774 -0.000000 0.000000 0.000000 0.000000 0.000000 0.000000 0.000000 
-0.023478 16.405934 1.842857 -157.839664 75.560892 -131.371483 -13.867993 -0.661493 -2.094503 -0.218007 -5.797976 -25.891538 0.751032 3.594643 61.463498 4.041782 24.047302 -16.872334 176.471000 -0.000000 -0.899700 5.762045 0.409645 0.878851 2.191325 12.793975 -46.090951 2.118161 -1.610551 30.675251 0.126403 2.757008 -4.483699 0.006500 0.000000 -59.171400 9.313452 -2.484968 5.204842 0.973472 -2.716708 -1.791000 -6.999086 -2.802224 0.665848 14.638086 2.443343 3.423565 -3.983593 -0.355314 2.616564 0.000000 0.000000 0.000000 -6.413768 -4.486076 -0.110147 -73.494853 -16.821130 10.244317 -1.496329 -51.940006 -0.062350 17.950729 -2.198452 -0.387895 -0.212522 0.235897 0.000000 0.000000 0.000000 0.000000 0.000000 0.000000 0.000000 20.219320 -2.379412 0.810232 54.153240 4.290545 -24.612655 3.144062 2.789775 0.004200 -9.699346 5.849638 -0.506981 0.119968 -0.048126 -0.000000 0.000000 0.000000 0.000000 0.000000 0.000000 0.000000 
